<svg width="46" height="46" viewBox="0 0 46 46" fill="none" xmlns="http://www.w3.org/2000/svg">
<g clip-path="url(#clip0_175_158)">
<path d="M0 0H46V46H0V0Z" fill="#F7DF1E"/>
<path d="M12.0952 38.4409L15.6152 36.3105C16.2944 37.5146 16.9122 38.5334 18.3941 38.5334C19.8145 38.5334 20.7103 37.9778 20.7103 35.8165V21.1185H25.033V35.8776C25.033 40.3549 22.4085 42.3929 18.5794 42.3929C15.1213 42.3929 13.114 40.602 12.095 38.4405M27.381 37.9776L30.9007 35.9398C31.8274 37.453 33.0316 38.5645 35.162 38.5645C36.9533 38.5645 38.0954 37.6689 38.0954 36.4338C38.0954 34.9517 36.922 34.4267 34.9458 33.5624L33.8654 33.0988C30.7465 31.7714 28.6778 30.1039 28.6778 26.5838C28.6778 23.3416 31.148 20.8712 35.0078 20.8712C37.756 20.8712 39.7322 21.8286 41.1524 24.3297L37.7865 26.4913C37.0453 25.1636 36.2428 24.6387 35.0076 24.6387C33.7416 24.6387 32.9387 25.4416 32.9387 26.4913C32.9387 27.7881 33.7416 28.3133 35.5941 29.1162L36.6748 29.5792C40.3494 31.1542 42.4181 32.7597 42.4181 36.3721C42.4181 40.2631 39.3613 42.3935 35.2545 42.3935C31.2405 42.3935 28.6467 40.4791 27.3808 37.9778" fill="black"/>
</g>
<defs>
<clipPath id="clip0_175_158">
<rect width="46" height="46" fill="white"/>
</clipPath>
</defs>
</svg>
