<svg width="68" height="18" viewBox="0 0 68 18" fill="none" xmlns="http://www.w3.org/2000/svg">
<g clip-path="url(#clip0_175_178)">
<path d="M5.27119 1.84134C4.58057 1.01868 3.9857 0.18321 3.86431 0.00961004C3.86142 0.00657273 3.85795 0.00415513 3.8541 0.00250337C3.85025 0.000851615 3.84611 0 3.84193 0C3.83775 0 3.83361 0.000851615 3.82976 0.00250337C3.82591 0.00415513 3.82244 0.00657273 3.81955 0.00961004C3.69803 0.18321 3.10329 1.01868 2.41267 1.84134C-3.51542 9.43148 3.34634 14.5536 3.34634 14.5536L3.40385 14.5923C3.45498 15.3827 3.58288 16.5203 3.58288 16.5203H4.09447C4.09447 16.5203 4.22237 15.3891 4.27351 14.5923L4.33115 14.5472C4.33752 14.5536 11.1991 9.43148 5.27119 1.84134ZM3.83868 14.438C3.83868 14.438 3.53175 14.1744 3.44861 14.0396V14.0267L3.81955 5.76174C3.81955 5.73601 3.85793 5.73601 3.85793 5.76174L4.22875 14.0267V14.0396C4.14561 14.1744 3.83868 14.438 3.83868 14.438Z" fill="#01EC64"/>
<path d="M16.68 12.7515L13.8205 5.74041L13.8143 5.72108H11.5897V6.19228H11.9485C12.0576 6.19228 12.1601 6.23761 12.2371 6.31495C12.314 6.39241 12.3525 6.49575 12.3525 6.60561L12.2884 13.6616C12.2884 13.8812 12.109 14.0619 11.8909 14.0684L11.5255 14.0748V14.5396H13.6925V14.0748L13.468 14.0684C13.2501 14.0619 13.0705 13.8812 13.0705 13.6617V7.01201L16.1863 14.5395C16.2312 14.6492 16.3337 14.7203 16.4493 14.7203C16.5646 14.7203 16.6671 14.6492 16.712 14.5395L19.7574 7.17988L19.8023 13.6616C19.8023 13.8875 19.6227 14.0683 19.3982 14.0747H19.1674V14.5395H21.7063V14.0747H21.36C21.1422 14.0747 20.9625 13.8875 20.9563 13.668L20.9369 6.61175C20.9368 6.50457 20.9782 6.40155 21.0524 6.32447C21.1266 6.24739 21.2277 6.20228 21.3344 6.19868L21.7063 6.19215V5.72095H19.5393L16.6798 12.7513L16.68 12.7515ZM36.6168 13.952C36.5462 13.8809 36.5075 13.784 36.5075 13.6675V10.2013C36.5075 9.54175 36.3148 9.02428 35.9291 8.65575C35.5498 8.28708 35.0228 8.09961 34.3673 8.09961C33.4479 8.09961 32.7217 8.47468 32.2138 9.21188C32.2075 9.22481 32.1882 9.23135 32.169 9.23135C32.1496 9.23135 32.1368 9.21828 32.1368 9.19895L31.8989 8.27415H31.5004L30.4784 8.86268V9.18601H30.7419C30.8641 9.18601 30.9669 9.21828 31.0377 9.28308C31.1083 9.34775 31.1468 9.44468 31.1468 9.58041V13.6611C31.1468 13.7775 31.1083 13.8745 31.0377 13.9457C30.9669 14.0168 30.8705 14.0556 30.7548 14.0556H30.4976V14.5276H32.8502V14.0556H32.5932C32.4773 14.0556 32.3809 14.0168 32.3103 13.9457C32.2396 13.8745 32.201 13.7775 32.201 13.6611V10.9579C32.201 10.6152 32.2781 10.2724 32.4196 9.93601C32.5674 9.60628 32.7859 9.32815 33.0751 9.11468C33.3644 8.90135 33.7116 8.79788 34.11 8.79788C34.56 8.79788 34.9006 8.94015 35.1127 9.22468C35.3248 9.50921 35.4342 9.87788 35.4342 10.3176V13.6545C35.4342 13.7709 35.3956 13.8679 35.3249 13.9391C35.2542 14.0103 35.1578 14.0489 35.042 14.0489H34.785V14.5211H37.1375V14.0491H36.8805C36.7841 14.062 36.694 14.0232 36.6168 13.952ZM58.1103 6.24895C57.46 5.90135 56.7333 5.72095 55.949 5.72095H52.889V6.19095H53.1885C53.3033 6.19095 53.4053 6.23601 53.5073 6.33895C53.6029 6.43561 53.6539 6.54508 53.6539 6.66095V13.5876C53.6539 13.7036 53.603 13.8129 53.5073 13.9096C53.4117 14.0061 53.3033 14.0576 53.1885 14.0576H52.8889V14.5276H55.949C56.7333 14.5276 57.46 14.3473 58.1103 13.9996C58.7605 13.652 59.2897 13.1369 59.6722 12.4804C60.0548 11.8239 60.2524 11.032 60.2524 10.1307C60.2524 9.22948 60.0548 8.44401 59.6723 7.78108C59.2834 7.11161 58.7604 6.60295 58.1103 6.24895ZM59.0221 10.1179C59.0221 10.9419 58.8754 11.6371 58.5884 12.1972C58.3015 12.7572 57.919 13.1756 57.4473 13.4461C56.9755 13.7164 56.4527 13.8516 55.8917 13.8516H55.2733C55.1585 13.8516 55.0565 13.8065 54.9545 13.7036C54.8589 13.6069 54.8079 13.4976 54.8079 13.3817V6.84761C54.8079 6.73161 54.8525 6.62881 54.9545 6.52575C55.0502 6.42921 55.1585 6.37775 55.2733 6.37775H55.8917C56.4527 6.37775 56.9754 6.51281 57.4473 6.78321C57.919 7.05361 58.3015 7.47201 58.5884 8.03215C58.8753 8.59855 59.0221 9.30028 59.0221 10.1179ZM67.4859 10.5879C67.2029 10.2595 66.6566 9.98268 66.0144 9.83455C66.9013 9.39041 67.3571 8.76601 67.3571 7.96121C67.3571 7.52361 67.242 7.13081 67.0102 6.79615C66.7791 6.46148 66.4511 6.19095 66.0336 6.00428C65.6155 5.81761 65.127 5.72108 64.5744 5.72108H61.1105V6.19095H61.3868C61.5025 6.19095 61.6054 6.23601 61.7082 6.33895C61.8046 6.43561 61.856 6.54508 61.856 6.66095V13.5876C61.856 13.7036 61.8046 13.8129 61.7082 13.9096C61.6118 14.0061 61.5025 14.0576 61.3868 14.0576H61.0848V14.5276H64.8447C65.4164 14.5276 65.9497 14.4311 66.4319 14.2379C66.914 14.0448 67.2996 13.7615 67.5761 13.3881C67.8586 13.0148 68 12.5576 68 12.0297C67.9937 11.4633 67.8265 10.9804 67.4859 10.5879ZM63.1735 13.71C63.0771 13.6135 63.0257 13.504 63.0257 13.3881V10.2787H64.8125C65.4419 10.2787 65.924 10.4396 66.2583 10.7613C66.5925 11.0833 66.7597 11.5017 66.7597 12.0168C66.7597 12.3257 66.6821 12.6284 66.5414 12.9052C66.3934 13.1884 66.1744 13.4137 65.8793 13.5876C65.5898 13.7613 65.23 13.8516 64.8125 13.8516H63.4946C63.3791 13.8516 63.2762 13.8064 63.1734 13.7099L63.1735 13.71ZM63.0322 9.61575V6.85401C63.0322 6.73815 63.0771 6.63521 63.1799 6.53215C63.2763 6.43561 63.3856 6.38415 63.5013 6.38415H64.3497C64.9598 6.38415 65.4101 6.53868 65.6931 6.83481C65.9755 7.13735 66.1169 7.52361 66.1169 7.99988C66.1169 8.48921 65.9818 8.88188 65.7186 9.17801C65.4548 9.46761 65.0565 9.61575 64.5297 9.61575H63.0322ZM27.6609 8.51001C27.1698 8.24068 26.6212 8.09935 26.0281 8.09935C25.4506 8.09935 24.9094 8.22721 24.4338 8.48868L24.3954 8.51001C23.9043 8.77948 23.5153 9.17081 23.2283 9.66481C22.9414 10.1588 22.7947 10.7363 22.7947 11.3777C22.7947 12.0193 22.9413 12.5968 23.2283 13.0908C23.5153 13.5848 23.9043 13.9761 24.3954 14.2455C24.8866 14.5149 25.4351 14.6561 26.0281 14.6561C26.6057 14.6561 27.1469 14.5284 27.6224 14.2671L27.6609 14.2456C28.1519 13.9761 28.5411 13.5848 28.8281 13.0908C29.1149 12.5968 29.2617 12.0193 29.2617 11.3777C29.2617 10.7363 29.1149 10.1588 28.8281 9.66481C28.5411 9.17081 28.152 8.77935 27.6609 8.51001ZM28.1328 11.3777C28.1328 12.1669 27.9415 12.8084 27.5588 13.2704C27.1825 13.7323 26.666 13.9696 26.0281 13.9696C25.4018 13.9696 24.8923 13.7407 24.5178 13.2949L24.4976 13.2704C24.1148 12.8084 23.9234 12.1669 23.9234 11.3777C23.9234 10.6031 24.108 9.97055 24.4769 9.51055L24.4976 9.48521C24.8737 9.02335 25.3905 8.78588 26.0281 8.78588C26.666 8.78588 27.1825 9.02321 27.5588 9.48521C27.9415 9.94721 28.1328 10.5887 28.1328 11.3777ZM50.2635 8.51001C49.7723 8.24068 49.2239 8.09935 48.6308 8.09935C48.0533 8.09935 47.512 8.22721 47.0365 8.48868L46.998 8.51001C46.507 8.77948 46.118 9.17081 45.831 9.66481C45.544 10.1588 45.3972 10.7363 45.3972 11.3777C45.3972 12.0193 45.544 12.5968 45.831 13.0908C46.1179 13.5848 46.507 13.9761 46.9981 14.2455C47.4891 14.5149 48.0377 14.6561 48.6308 14.6561C49.2083 14.6561 49.7496 14.5284 50.2251 14.2671L50.2636 14.2456C50.7546 13.9761 51.1436 13.5848 51.4306 13.0908C51.7176 12.5968 51.8643 12.0193 51.8643 11.3777C51.8643 10.7363 51.7176 10.1588 51.4306 9.66481C51.1437 9.17081 50.7482 8.77935 50.2635 8.51001ZM50.7355 11.3777C50.7355 12.1669 50.5441 12.8084 50.1615 13.2704C49.7851 13.7323 49.2686 13.9696 48.6308 13.9696C48.0043 13.9696 47.4949 13.7407 47.1205 13.2949L47.1001 13.2704C46.7175 12.8084 46.5261 12.1669 46.5261 11.3777C46.5261 10.5967 46.7106 9.97028 47.0794 9.51055L47.1001 9.48521C47.4764 9.02335 47.993 8.78588 48.6308 8.78588C49.2686 8.78588 49.7851 9.02321 50.1615 9.48521C50.5377 9.94721 50.7355 10.5887 50.7355 11.3777ZM41.1483 8.09948C40.6343 8.09948 40.1655 8.20895 39.7415 8.42815C39.3176 8.64721 38.9836 8.94375 38.746 9.32401C38.5096 9.693 38.3847 10.1228 38.3863 10.5615C38.3863 10.9611 38.4762 11.3284 38.6626 11.6572C38.8423 11.9729 39.0864 12.2372 39.3948 12.4563L38.4762 13.7067C38.3607 13.8613 38.3478 14.0676 38.4312 14.2352C38.5211 14.4092 38.6882 14.5123 38.8809 14.5123H39.1443C38.898 14.6791 38.6989 14.8755 38.5584 15.1069L38.5404 15.1375C38.3734 15.4145 38.2899 15.7047 38.2899 16.0011C38.2899 16.5455 38.5254 16.9967 38.9901 17.3361L39.0157 17.3545C39.4912 17.6961 40.1591 17.8701 41.0005 17.8701C41.585 17.8701 42.1438 17.7735 42.6513 17.5865C43.1504 17.4051 43.5586 17.1383 43.8642 16.7924L43.8907 16.7617C44.2055 16.4007 44.3662 15.9624 44.3662 15.4597C44.3662 14.9312 44.1735 14.5573 43.7239 14.1965C43.3385 13.8936 42.7347 13.7325 41.9831 13.7325H39.414C39.4102 13.7322 39.4067 13.7307 39.4038 13.7283L39.4011 13.726L39.3999 13.7233C39.3986 13.7192 39.3965 13.7113 39.4011 13.7067L40.0692 12.8044C40.2274 12.8784 40.3932 12.9346 40.5638 12.9719C40.7178 13.0041 40.8913 13.0171 41.084 13.0171C41.6235 13.0171 42.1117 12.9075 42.5356 12.6884C42.9596 12.4692 43.3 12.1728 43.5441 11.7924C43.7881 11.4187 43.9101 10.9997 43.9101 10.5551C43.9101 10.0781 43.679 9.20801 43.0495 8.76335C43.0495 8.75935 43.0517 8.75788 43.0536 8.75721L43.0559 8.75681L44.4369 8.91148V8.27348H42.2272C41.8805 8.16388 41.5207 8.09948 41.1483 8.09948ZM41.919 12.1341C41.6749 12.2629 41.4116 12.3339 41.1483 12.3339C40.718 12.3339 40.3389 12.1792 40.0178 11.8763C39.6966 11.5733 39.5361 11.1287 39.5361 10.5615C39.5361 9.99428 39.6966 9.54948 40.0178 9.24668C40.3389 8.94375 40.7178 8.78908 41.1483 8.78908C41.4067 8.78908 41.6535 8.84828 41.8884 8.97228L41.919 8.98881C42.1631 9.11775 42.3622 9.31761 42.5228 9.58188C42.6768 9.84615 42.7605 10.1748 42.7605 10.5615C42.7605 10.9547 42.6833 11.2833 42.5228 11.5411C42.3687 11.8053 42.1631 12.0052 41.919 12.1341ZM40.1784 14.5059H41.919C42.4007 14.5059 42.7091 14.6025 42.9146 14.8088C43.1201 15.0151 43.2228 15.2921 43.2228 15.6144C43.2228 16.0849 43.0366 16.4717 42.6641 16.7616C42.2915 17.0517 41.7906 17.1999 41.1739 17.1999C40.6343 17.1999 40.1847 17.0775 39.8571 16.8455C39.5296 16.6135 39.3626 16.2588 39.3626 15.8077C39.3626 15.5241 39.4396 15.2599 39.5938 15.0279C39.7479 14.7959 39.9342 14.6283 40.1782 14.5059H40.1784Z" fill="#001E2B"/>
</g>
<defs>
<clipPath id="clip0_175_178">
<rect width="68" height="18" fill="white"/>
</clipPath>
</defs>
</svg>
