<svg width="60" height="37" viewBox="0 0 60 37" fill="none" xmlns="http://www.w3.org/2000/svg">
<g clip-path="url(#clip0_175_181)">
<path d="M29.6614 36.8933C29.4583 36.8933 29.2687 36.8389 29.0926 36.7435L27.2913 35.6677C27.0203 35.5178 27.1558 35.4634 27.2371 35.4362C27.6028 35.3136 27.6705 35.2863 28.0497 35.0685C28.0904 35.0412 28.1446 35.0549 28.1852 35.0821L29.5667 35.9128C29.6208 35.94 29.6886 35.94 29.7291 35.9128L35.1332 32.7669C35.1874 32.7397 35.2146 32.6851 35.2146 32.6171V26.3389C35.2146 26.2707 35.1874 26.2163 35.1332 26.189L29.7291 23.0567C29.675 23.0294 29.6073 23.0294 29.5667 23.0567L24.1626 26.189C24.1085 26.2162 24.0813 26.2843 24.0813 26.3388V32.617C24.0813 32.6715 24.1085 32.7395 24.1626 32.7669L25.6389 33.6248C26.438 34.0334 26.9391 33.5567 26.9391 33.0801V26.8835C26.9391 26.8019 27.0069 26.7201 27.1017 26.7201H27.7924C27.8737 26.7201 27.9549 26.7882 27.9549 26.8835V33.0801C27.9549 34.1559 27.3725 34.7824 26.3567 34.7824C26.0452 34.7824 25.8015 34.7824 25.1106 34.4419L23.6886 33.6248C23.3364 33.4206 23.1198 33.0392 23.1198 32.6307V26.3524C23.1198 25.9439 23.3364 25.5625 23.6886 25.3583L29.0926 22.2123C29.4312 22.0217 29.8918 22.0217 30.2303 22.2123L35.6343 25.3583C35.9865 25.5625 36.2033 25.9439 36.2033 26.3524V32.6307C36.2033 33.0392 35.9865 33.4206 35.6343 33.6248L30.2303 36.7708C30.0542 36.8525 29.851 36.8933 29.6614 36.8933ZM31.3273 32.5762C28.9572 32.5762 28.4696 31.4867 28.4696 30.5607C28.4696 30.4789 28.5373 30.3972 28.6321 30.3972H29.3364C29.4176 30.3972 29.4854 30.4517 29.4854 30.5334C29.5938 31.2552 29.9053 31.6093 31.3409 31.6093C32.4786 31.6093 32.9663 31.3505 32.9663 30.7376C32.9663 30.3836 32.8307 30.1249 31.0565 29.9478C29.5802 29.7979 28.6592 29.4712 28.6592 28.2863C28.6592 27.1832 29.5803 26.5294 31.1242 26.5294C32.8578 26.5294 33.7112 27.1287 33.8196 28.436C33.8196 28.477 33.806 28.5178 33.7789 28.5587C33.7517 28.5859 33.7112 28.6131 33.6705 28.6131H32.9662C32.8985 28.6131 32.8307 28.5587 32.8173 28.4905C32.6547 27.7416 32.2348 27.4964 31.1242 27.4964C29.8782 27.4964 29.7291 27.9322 29.7291 28.259C29.7291 28.654 29.9053 28.7765 31.5847 28.9944C33.2506 29.2124 34.0362 29.5256 34.0362 30.6968C34.0226 31.8953 33.0475 32.5762 31.3273 32.5762Z" fill="#539E43"/>
<path d="M12.8939 12.3387C12.8939 12.0936 12.7585 11.8619 12.5418 11.7394L6.79913 8.41647C6.70421 8.36191 6.59593 8.33469 6.48765 8.32102H6.43339C6.32511 8.32102 6.21671 8.36191 6.1219 8.41647L0.379248 11.7394C0.162451 11.8619 0.0270996 12.0935 0.0270996 12.3387L0.0406934 21.2726C0.0406934 21.3951 0.108428 21.5177 0.216709 21.5722C0.325107 21.6403 0.460459 21.6403 0.555381 21.5722L3.96847 19.6111C4.18515 19.4885 4.32062 19.257 4.32062 19.0119V14.8309C4.32062 14.5858 4.45597 14.3543 4.67276 14.2317L6.1219 13.3873C6.2303 13.3192 6.35218 13.2919 6.47405 13.2919C6.59593 13.2919 6.7178 13.3192 6.81273 13.3873L8.26187 14.2317C8.47866 14.3543 8.61401 14.5857 8.61401 14.8309V19.0119C8.61401 19.257 8.74948 19.4885 8.96616 19.6111L12.3792 21.5722C12.432 21.6056 12.493 21.6233 12.5553 21.6233C12.6176 21.6233 12.6787 21.6056 12.7314 21.5722C12.8398 21.5177 12.9075 21.3951 12.9075 21.2726L12.8939 12.3387ZM40.4966 0.040918C40.3884 -0.0136393 40.2529 -0.0136393 40.158 0.040918C40.0497 0.109026 39.9819 0.217905 39.9819 0.340453V9.19276C39.9819 9.27442 39.9414 9.35608 39.8601 9.41064C39.7789 9.45141 39.6975 9.45141 39.6163 9.41064L38.1807 8.57991C38.0754 8.51965 37.9564 8.48796 37.8352 8.48796C37.7141 8.48796 37.5951 8.51965 37.4898 8.57991L31.7472 11.9165C31.5305 12.0391 31.395 12.2706 31.395 12.5157V19.1752C31.395 19.4203 31.5305 19.652 31.7472 19.7745L37.4898 23.1111C37.5951 23.1714 37.7141 23.2031 37.8352 23.2031C37.9564 23.2031 38.0754 23.1714 38.1807 23.1111L43.9233 19.7745C44.14 19.652 44.2755 19.4204 44.2755 19.1752V2.574C44.2755 2.31524 44.14 2.08381 43.9233 1.96115L40.4966 0.040918ZM39.9685 16.9827C39.9685 17.0508 39.9414 17.1052 39.8871 17.1324L37.9233 18.2764C37.8959 18.2898 37.8658 18.2968 37.8352 18.2968C37.8047 18.2968 37.7746 18.2898 37.7472 18.2764L35.7834 17.1324C35.7291 17.1052 35.702 17.0371 35.702 16.9827V14.6947C35.702 14.6266 35.7291 14.5721 35.7834 14.5449L37.7472 13.4009C37.7746 13.3874 37.8047 13.3804 37.8352 13.3804C37.8658 13.3804 37.8959 13.3874 37.9233 13.4009L39.8871 14.5449C39.9414 14.572 39.9685 14.6402 39.9685 14.6947V16.9827ZM59.6072 14.6402C59.824 14.5177 59.9459 14.2862 59.9459 14.0409V12.4204C59.9459 12.1753 59.8104 11.9437 59.6072 11.8212L53.9052 8.49825C53.8 8.43799 53.6809 8.4063 53.5598 8.4063C53.4387 8.4063 53.3197 8.43799 53.2144 8.49825L47.4718 11.8347C47.255 11.9573 47.1196 12.1888 47.1196 12.4339V19.0936C47.1196 19.3387 47.2551 19.5702 47.4718 19.6927L53.1737 22.9612C53.3905 23.0838 53.6479 23.0838 53.8511 22.9612L57.3047 21.0276C57.4131 20.973 57.4809 20.8505 57.4809 20.7279C57.4809 20.6054 57.4131 20.4828 57.3047 20.4283L51.535 17.0917C51.4266 17.0236 51.3589 16.9147 51.3589 16.7921V14.7085C51.3589 14.5859 51.4266 14.4634 51.535 14.4088L53.3363 13.3738C53.389 13.3404 53.4501 13.3227 53.5124 13.3227C53.5747 13.3227 53.6357 13.3404 53.6884 13.3738L55.4898 14.4088C55.5982 14.4769 55.6659 14.5858 55.6659 14.7085V16.3427C55.6659 16.4653 55.7336 16.5878 55.842 16.6423C55.8947 16.6756 55.9558 16.6933 56.0181 16.6933C56.0804 16.6933 56.1414 16.6756 56.1941 16.6423L59.6072 14.6402Z" fill="#333333"/>
<path d="M53.4717 14.3268C53.4918 14.3135 53.5154 14.3064 53.5395 14.3064C53.5635 14.3064 53.5871 14.3135 53.6072 14.3268L54.7043 14.9669C54.7449 14.9942 54.7719 15.035 54.7719 15.0895V16.3697C54.7719 16.4242 54.745 16.4651 54.7043 16.4923L53.6072 17.1323C53.5871 17.1457 53.5635 17.1528 53.5395 17.1528C53.5154 17.1528 53.4918 17.1457 53.4717 17.1323L52.3747 16.4923C52.3341 16.4651 52.307 16.4242 52.307 16.3697V15.0896C52.307 15.035 52.334 14.9941 52.3747 14.967L53.4717 14.3268Z" fill="#539E43"/>
<path d="M22.4966 8.52551C22.3914 8.46527 22.2724 8.43359 22.1513 8.43359C22.0302 8.43359 21.9112 8.46527 21.8059 8.52551L16.1039 11.8347C15.8871 11.9572 15.7653 12.1887 15.7653 12.4338V19.0663C15.7653 19.3114 15.9007 19.5429 16.1039 19.6655L21.8059 22.9748C21.9112 23.0351 22.0302 23.0667 22.1513 23.0667C22.2724 23.0667 22.3914 23.0351 22.4966 22.9748L28.1987 19.6655C28.4154 19.5429 28.5374 19.3114 28.5374 19.0663V12.434C28.5374 12.1889 28.4018 11.9573 28.1987 11.8348L22.4966 8.52551Z" fill="url(#paint0_linear_175_181)"/>
</g>
<defs>
<linearGradient id="paint0_linear_175_181" x1="24.4743" y1="10.9925" x2="18.1753" y2="20.8358" gradientUnits="userSpaceOnUse">
<stop stop-color="#41873F"/>
<stop offset="0.3288" stop-color="#418B3D"/>
<stop offset="0.6352" stop-color="#419637"/>
<stop offset="0.9319" stop-color="#3FA92D"/>
<stop offset="1" stop-color="#3FAE2A"/>
</linearGradient>
<clipPath id="clip0_175_181">
<rect width="60" height="37" fill="white"/>
</clipPath>
</defs>
</svg>
