<svg width="56" height="56" viewBox="0 0 56 56" fill="none" xmlns="http://www.w3.org/2000/svg">
<path d="M28 40.8887C41.531 40.8887 52.5 35.1182 52.5 28C52.5 20.8817 41.531 15.1112 28 15.1112C14.469 15.1112 3.5 20.8817 3.5 28C3.5 35.1182 14.469 40.8887 28 40.8887Z" fill="url(#paint0_radial_175_161)"/>
<path d="M28 39.9315C41.0023 39.9315 51.5428 34.5896 51.5428 28C51.5428 21.4104 41.0023 16.0685 28 16.0685C14.9977 16.0685 4.45728 21.4104 4.45728 28C4.45728 34.5896 14.9977 39.9315 28 39.9315Z" fill="#6280B6"/>
<path d="M32.7688 31.85L33.936 25.8405C34.1023 25.3262 34.1297 24.7771 34.0154 24.2488C33.9011 23.7205 33.6491 23.2318 33.285 22.8323C32.2689 22.1107 31.0246 21.7841 29.785 21.9135H27.7673L28.3465 18.9385C28.3571 18.8831 28.3553 18.8261 28.3413 18.7715C28.3273 18.7168 28.3014 18.666 28.2654 18.6225C28.2295 18.5791 28.1844 18.5441 28.1334 18.5201C28.0824 18.496 28.0267 18.4836 27.9703 18.4835H25.1703C25.0814 18.4835 24.9952 18.5144 24.9266 18.5709C24.858 18.6274 24.8111 18.706 24.794 18.7933L23.5533 25.1738C23.4578 24.4916 23.168 23.8513 22.7185 23.3293C22.2181 22.8281 21.6144 22.4421 20.9494 22.1982C20.2845 21.9543 19.5744 21.8583 18.8685 21.917H13.475C13.3861 21.917 13.3 21.9479 13.2313 22.0044C13.1627 22.0609 13.1158 22.1395 13.0988 22.2268L10.5893 35.1418C10.5787 35.1972 10.5805 35.2542 10.5946 35.3088C10.6086 35.3634 10.6345 35.4143 10.6704 35.4578C10.7064 35.5012 10.7514 35.5362 10.8025 35.5602C10.8535 35.5843 10.9092 35.5967 10.9655 35.5968H13.7708C13.8597 35.5968 13.9459 35.5659 14.0145 35.5094C14.0831 35.4529 14.13 35.3743 14.147 35.287L14.7543 32.1633H16.8543C17.7815 32.188 18.707 32.07 19.5983 31.8133C20.3498 31.5646 21.0371 31.1529 21.6108 30.6075C22.081 30.1792 22.4823 29.6811 22.8008 29.1305L22.2985 31.7118C22.288 31.7672 22.2898 31.8242 22.3038 31.8788C22.3178 31.9334 22.3437 31.9843 22.3797 32.0278C22.4156 32.0712 22.4607 32.1062 22.5117 32.1302C22.5627 32.1543 22.6184 32.1667 22.6748 32.1668H25.4748C25.5637 32.1668 25.6499 32.1359 25.7185 32.0794C25.7871 32.0229 25.834 31.9443 25.851 31.857L27.2283 24.7678H29.1428C29.9583 24.7678 30.1928 24.9305 30.2628 25.0005C30.3328 25.0705 30.4378 25.2893 30.3065 25.9963L29.1953 31.71C29.1847 31.7654 29.1865 31.8225 29.2006 31.8771C29.2146 31.9317 29.2405 31.9825 29.2764 32.026C29.3124 32.0695 29.3574 32.1044 29.4085 32.1285C29.4595 32.1525 29.5152 32.165 29.5715 32.165H32.4065C32.4938 32.1616 32.5772 32.1285 32.6431 32.0713C32.709 32.014 32.7533 31.9359 32.7688 31.85ZM19.8275 26.8905C19.742 27.6252 19.3932 28.3041 18.8458 28.8015C18.1582 29.2292 17.3519 29.4261 16.5445 29.3633H15.2985L16.1998 24.724H17.8115C18.9963 24.724 19.4723 24.9778 19.6648 25.1895C19.8116 25.4451 19.9021 25.729 19.9302 26.0224C19.9583 26.3158 19.9233 26.6118 19.8275 26.8905ZM44.7055 23.331C44.2051 22.8298 43.6014 22.4438 42.9364 22.1999C42.2715 21.956 41.5614 21.8601 40.8555 21.9188H35.4463C35.3574 21.9187 35.2712 21.9496 35.2026 22.0061C35.134 22.0626 35.0871 22.1413 35.07 22.2285L32.5605 35.1435C32.55 35.1989 32.5518 35.256 32.5658 35.3106C32.5798 35.3652 32.6057 35.416 32.6417 35.4595C32.6776 35.503 32.7227 35.538 32.7737 35.562C32.8247 35.586 32.8804 35.5985 32.9368 35.5985H35.7508C35.8397 35.5985 35.9259 35.5677 35.9945 35.5112C36.0631 35.4546 36.11 35.376 36.127 35.2888L36.7343 32.165H38.8343C39.7615 32.1898 40.687 32.0717 41.5783 31.815C42.3298 31.5664 43.0171 31.1546 43.5908 30.6093C44.5734 29.7238 45.2354 28.5381 45.4738 27.237C45.6621 26.5714 45.6906 25.8708 45.5571 25.1921C45.4236 24.5134 45.1319 23.8757 44.7055 23.331ZM41.7883 26.8905C41.7027 27.6252 41.354 28.3041 40.8065 28.8015C40.1172 29.2297 39.309 29.426 38.5 29.3615H37.2575L38.1588 24.7223H39.7705C40.9553 24.7223 41.4313 24.976 41.6238 25.1878C41.7712 25.4434 41.8621 25.7276 41.8905 26.0213C41.9189 26.315 41.884 26.6114 41.7883 26.8905Z" fill="white"/>
<path d="M17.8115 24.339C18.1891 24.2915 18.5724 24.3193 18.9391 24.4208C19.3059 24.5224 19.6489 24.6956 19.9483 24.9305C20.1415 25.228 20.2647 25.5653 20.3086 25.9172C20.3526 26.2692 20.3161 26.6265 20.202 26.9623C20.102 27.7891 19.7023 28.5506 19.0785 29.1025C18.3263 29.5871 17.437 29.8143 16.5445 29.75H14.833L15.883 24.3443L17.8115 24.339ZM10.9568 35.217H13.7708L14.4375 31.7835H16.8473C17.7343 31.8077 18.6197 31.695 19.4723 31.4493C20.172 31.2182 20.8116 30.8345 21.3448 30.3258C22.2676 29.4956 22.8892 28.3829 23.1123 27.1618C23.2889 26.5545 23.3199 25.9142 23.2029 25.2928C23.0858 24.6713 22.8239 24.0862 22.4385 23.5848C21.9738 23.1251 21.4144 22.7724 20.7993 22.5511C20.1843 22.3299 19.5283 22.2455 18.8773 22.3038H13.475L10.9568 35.217ZM25.1773 18.8685H27.9773L27.3 22.302H29.7868C30.9289 22.1825 32.0764 22.4728 33.0243 23.121C33.338 23.4776 33.5525 23.9105 33.6462 24.3761C33.7398 24.8418 33.7095 25.3238 33.558 25.774L32.3908 31.7835H29.5575L30.6688 26.0698C30.7462 25.8517 30.7738 25.6191 30.7496 25.3889C30.7253 25.1588 30.6499 24.937 30.5288 24.7398C30.1235 24.4495 29.623 24.3243 29.1288 24.3898H26.8975L25.459 31.7888H22.659L25.1773 18.8685ZM39.7723 24.339C40.1499 24.2915 40.5331 24.3193 40.8999 24.4208C41.2667 24.5224 41.6097 24.6956 41.909 24.9305C42.1022 25.228 42.2254 25.5653 42.2694 25.9172C42.3133 26.2692 42.2769 26.6265 42.1628 26.9623C42.0628 27.7891 41.663 28.5506 41.0393 29.1025C40.2856 29.5882 39.3943 29.8154 38.5 29.75H36.7885L37.8385 24.3443L39.7723 24.339ZM32.9175 35.217H35.7315L36.3983 31.7835H38.808C39.695 31.8077 40.5804 31.695 41.433 31.4493C42.1328 31.2182 42.7724 30.8345 43.3055 30.3258C44.2284 29.4956 44.85 28.3829 45.073 27.1618C45.2496 26.5545 45.2807 25.9142 45.1636 25.2928C45.0465 24.6713 44.7847 24.0862 44.3993 23.5848C43.9346 23.1251 43.3752 22.7724 42.7601 22.5511C42.145 22.3299 41.4891 22.2455 40.838 22.3038H35.427L32.9175 35.217Z" fill="#000004"/>
<defs>
<radialGradient id="paint0_radial_175_161" cx="0" cy="0" r="1" gradientUnits="userSpaceOnUse" gradientTransform="translate(18.2105 19.6437) scale(32.172)">
<stop stop-color="white"/>
<stop offset="0.5" stop-color="#4C6B96"/>
<stop offset="1" stop-color="#231F20"/>
</radialGradient>
</defs>
</svg>
